<svg xmlns="http://www.w3.org/2000/svg" xmlns:svg="http://www.w3.org/2000/svg" xmlns:xlink="http://www.w3.org/1999/xlink" id="svg897" width="257.565" height="257.565" version="1.1"><metadata id="metadata901"/><defs id="defs865"><linearGradient id="a"><stop id="stop859" offset="0" stop-color="#facbac"/><stop id="stop861" offset="1" stop-color="#efb692"/></linearGradient><linearGradient id="b" x1="256.241" x2="257.053" y1="303.111" y2="277.135" gradientTransform="translate(-125.565,-111.553)" gradientUnits="userSpaceOnUse" xlink:href="#a"/></defs><rect id="rect918" width="258.08" height="257.535" x="0" y="1.119" fill="#11467f" fill-opacity="1" stroke="#be1a1a" stroke-dasharray="none" stroke-linecap="round" stroke-miterlimit="4" stroke-opacity="1" stroke-width="1.134" opacity="1"/><g id="g839" transform="matrix(0.83511411,0,0,0.83511411,21.234335,21.234499)"><circle id="circle867" cx="254.347" cy="240.336" r="127.715" fill="#fff" stroke="#11467f" stroke-linecap="round" stroke-width="2.135" transform="translate(-125.565,-111.553)"/><path id="path869" fill="#11467f" fill-opacity="1" d="m 129.76562,13.003906 c -9.86695,0.164006 -2.53716,23.954249 -2.61914,29.533203 -1.12187,0.05992 -2.18881,0.159548 -3.20312,0.296875 -1.13334,-5.268425 -15.50353,-31.838239 -22.68555,-25.335937 -6.643327,6.015755 13.76126,17.993784 17.36914,26.492187 -0.936,0.290512 -1.81274,0.610787 -2.62695,0.957032 -3.11286,-2.578577 -29.819976,-23.707452 -34.457031,-15.896485 -3.956639,6.663361 22.364461,14.56026 29.490231,18.75 -2.70657,2.038268 -4.17144,4.111812 -4.8164,5.216797 -5.53169,2.390452 -9.069822,6.149197 -11.648441,10.388672 -7.253,5.552 -11.775828,15.099594 -9.798828,23.683594 -1.864828,6.035263 -2.269643,21.611976 3.267578,30.398436 -0.928677,0.75077 -1.619876,2.15627 -1.826171,4.48438 -0.317001,3.57 1.107671,5.98406 2.013671,8.28906 3.867966,9.84725 7.638829,10.55185 9.81836,5.68359 0.05173,0.10326 0.09814,0.21169 0.15039,0.31446 5.496971,10.81244 10.562951,17.9239 15.253911,22.58007 -0.87595,3.2606 -2.50038,8.49125 -4.63282,11.62696 -1.43113,2.10468 -3.36684,3.43726 -5.10156,4.30468 -12.556622,6.20055 -37.558107,13.77207 -46.55664,23.43946 -4.905,6.13 -9.482594,20.27622 -7.433594,30.69922 l 0.01172,0.008 c 3.267,2.581 6.659109,5 10.162109,7.25 0.25,0.156 0.501907,0.30989 0.753907,0.46289 3.270831,2.07438 6.634333,3.9989 10.080078,5.76758 0.529,0.26 1.059797,0.51848 1.591797,0.77148 3.191729,1.58676 6.448486,3.0392 9.761718,4.35352 0.867,0.327 1.737328,0.64512 2.611328,0.95312 3.024883,1.13018 6.09154,2.14523 9.19336,3.04297 1.214,0.33 2.431297,0.63959 3.654297,0.93359 2.79879,0.72567 5.62137,1.35624 8.46289,1.89063 1.583,0.27 3.17067,0.5107 4.76367,0.7207 2.514,0.38 5.03931,0.68216 7.57031,0.91016 3.473,0.317 6.95636,0.49144 10.44336,0.52344 3.715,-0.03 7.42796,-0.22022 11.12696,-0.57422 1.75,-0.176 3.49728,-0.38872 5.23828,-0.63672 2.57,-0.313 5.12978,-0.70388 7.67578,-1.17188 1.42067,-0.29357 2.83624,-0.61132 4.24609,-0.95312 2.8317,-0.62551 5.64127,-1.34728 8.42383,-2.16406 1.087,-0.346 2.17005,-0.70413 3.24805,-1.07813 3.047,-0.99 6.05748,-2.09355 9.02148,-3.31054 0.782,-0.34001 1.55999,-0.68893 2.33399,-1.04493 3.19565,-1.39058 6.33304,-2.91138 9.40429,-4.55859 0.51,-0.289 1.01744,-0.58095 1.52344,-0.87695 3.28184,-1.8255 6.48156,-3.79486 9.58984,-5.90235 0.258,-0.183 0.51549,-0.36483 0.77149,-0.54883 3.273,-2.26 6.43833,-4.67156 9.48633,-7.22656 l 0.0254,-0.0215 c -0.602,-9.494 -4.04283,-25.40767 -9.29883,-30.51367 -10.45794,-11.94308 -41.72701,-15.73552 -50.69336,-26.78711 -2.38484,-3.08077 -3.56944,-6.44914 -4.16992,-8.9961 4.9116,-4.68651 10.10622,-12.30421 15.44531,-24.40625 2.16076,5.11871 5.99101,4.53502 9.91992,-5.46484 0.906,-2.305 2.32967,-4.71906 2.01367,-8.28906 -0.23833,-2.68967 -1.12524,-4.13678 -2.27734,-4.77539 5.05172,-8.84857 6.14418,-25.148856 4.24414,-30.226567 1.468,-8.999 -3.72547,-20.268625 -9.73047,-23.890625 -2.87891,-5.759426 -6.7886,-9.851774 -12.21094,-11.005859 -1.01574,-1.195472 -2.70142,-2.842915 -5.14648,-4.4375 6.50743,-3.07775 34.24725,-11.991971 30.51758,-18.5625 -4.26008,-7.505389 -29.77727,12.163372 -34.69727,16.320312 -0.77172,-0.336493 -1.57674,-0.65948 -2.44726,-0.955078 2.09005,-8.81588 24.35389,-20.441537 17.5332,-26.556641 -8.0602,-7.224821 -21.06157,21.113188 -22.88281,25.207032 -1.23846,-0.214926 -2.5474,-0.380679 -3.93555,-0.486328 -0.41856,-6.055283 7.11002,-29.772593 -3.31641,-29.59961 z"/></g></svg>