<svg xmlns="http://www.w3.org/2000/svg" xmlns:svg="http://www.w3.org/2000/svg" xmlns:xlink="http://www.w3.org/1999/xlink" id="svg1391" width="1137.489" height="984.466" version="1.1"><metadata id="metadata1395"/><defs id="defs1235"><linearGradient id="a"><stop id="stop1229" offset="0" stop-color="#facbac"/><stop id="stop1231" offset="1" stop-color="#efb692"/></linearGradient><linearGradient id="b" x1="256.241" x2="257.053" y1="303.111" y2="277.135" gradientTransform="matrix(1.66388,0,0,1.66388,523.986,-580.926)" gradientUnits="userSpaceOnUse" xlink:href="#a"/></defs><path id="path1237" fill="#b1b6eb" d="m 268.69,423.471 -114.022,31.611 21.804,70.149 a 207.487,207.487 0 0 0 -36.878,26.471 L 82.422,508.14 15.812,616.515 77.086,654.073 a 207.487,207.487 0 0 0 -6.442,41.868 L 0,713.608 29.353,831.018 98.28,809.882 a 207.487,207.487 0 0 0 28.108,37.812 l -41.708,57.829 104.987,59.834 31.957,-59.465 a 207.487,207.487 0 0 0 50.396,7.571 l 11.351,65.447 120.798,-24.847 -20.017,-70.022 a 207.487,207.487 0 0 0 36.74,-27.958 l 57.782,41.534 58.705,-107.246 -58.716,-32.925 a 207.487,207.487 0 0 0 6.327,-43.562 L 556.567,696.667 526.086,583.774 457.7,603.181 a 207.487,207.487 0 0 0 -29.571,-39.62 l 44.898,-61.068 -106.116,-59.834 -36.255,63.015 a 207.487,207.487 0 0 0 -44.139,-6.661 z m 9.093,172.623 A 110.094,110.094 0 0 1 387.875,706.186 110.094,110.094 0 0 1 277.783,816.278 110.094,110.094 0 0 1 167.69,706.186 a 110.094,110.094 0 0 1 0.553,-10.994 110.094,110.094 0 0 1 109.539,-99.098 z"/><path id="path1239" fill="#c4c8ef" d="m 347.66922,4.1777456 -85.64577,-5.109248 -1.52661,53.2444154 a 150.452,150.452 0 0 0 -31.51806,9.493447 l -28.98261,-43.318397 -71.16051,58.689899 33.20677,40.163018 a 150.452,150.452 0 0 0 -14.25771,27.20684 l -52.61198,-4.48107 -7.45567,87.43848 52.25017,1.69822 a 150.452,150.452 0 0 0 10.3964,32.54285 l -42.19943,29.86963 57.9583,65.71581 35.89581,-33.28217 a 150.452,150.452 0 0 0 32.79168,17.0361 l -7.59241,47.56244 88.70374,11.34306 2.7223,-52.7376 a 150.452,150.452 0 0 0 31.77285,-10.54606 l 29.87783,42.06938 65.47247,-59.77212 -32.54139,-36.38454 a 150.452,150.452 0 0 0 14.57692,-28.39516 l 53.14712,5.00912 5.61863,-84.60466 -51.47189,-2.75798 A 150.452,150.452 0 0 0 424.12139,137.74366 L 469.27106,106.40361 410.53808,40.421505 370.8597,75.12913 A 150.452,150.452 0 0 0 342.14683,60.187204 Z M 313.34133,124.73084 a 79.83,79.83 0 0 1 49.65048,101.39162 79.83,79.83 0 0 1 -101.39162,49.65047 79.83,79.83 0 0 1 -49.65047,-101.39161 79.83,79.83 0 0 1 2.9626,-7.4125 79.83,79.83 0 0 1 98.42901,-42.23798 z"/><path id="path1241" fill="#e4e6f8" d="m 385.90999,340.28875 -12.39504,67.05422 41.84714,6.40512 a 119.576,119.576 0 0 0 4.40949,25.78623 l -36.99809,18.62937 39.34119,61.86074 34.92286,-22.27012 a 119.576,119.576 0 0 0 20.06735,13.90285 l -8.67408,41.06086 68.23954,14.42093 6.4429,-41.04681 a 119.576,119.576 0 0 0 26.68388,-5.0207 l 19.43765,36.20193 57.49509,-39.29639 -22.74634,-31.56324 a 119.576,119.576 0 0 0 16.64006,-24.20067 l 36.77474,10.63374 17.61005,-68.85754 -41.33176,-7.29799 a 119.576,119.576 0 0 0 -5.21428,-26.09171 l 36.10077,-19.45679 -40.75204,-57.47964 -31.87543,22.11315 a 119.576,119.576 0 0 0 -20.9737,-14.27074 l 9.14154,-41.4303 -66.18351,-12.69562 -7.20162,40.32955 a 119.576,119.576 0 0 0 -27.99042,5.32286 l -20.31085,-38.67323 -57.77946,39.88196 23.49964,34.68671 a 119.576,119.576 0 0 0 -14.58839,21.18813 z m 91.73418,38.85049 a 63.447,63.447 0 0 1 84.82171,-29.25937 63.447,63.447 0 0 1 29.25949,84.82312 63.447,63.447 0 0 1 -84.82247,29.25872 63.447,63.447 0 0 1 -5.55758,-3.06121 63.447,63.447 0 0 1 -23.70178,-81.7605 z"/><path id="path1243" fill="#b6bbeb" d="m 491.43099,105.95891 -15.69679,19.23005 12.23386,9.37188 a 43.53,43.53 0 0 0 -3.10751,9.00128 l -15.06977,-0.53186 1.72429,26.63169 15.04514,-0.993 a 43.53,43.53 0 0 0 3.96944,7.95061 l -9.95811,11.58616 19.25327,16.55122 9.24361,-11.97195 a 43.53,43.53 0 0 0 9.39563,3.06892 l -0.13528,14.95739 25.23072,-2.47323 -1.73298,-14.0563 a 43.53,43.53 0 0 0 9.54873,-4.81005 l 9.87358,9.8331 17.67755,-18.89272 -11.91317,-9.56612 a 43.53,43.53 0 0 0 2.90418,-9.24085 l 14.92938,0.11264 -2.94128,-25.48117 -14.04568,1.47686 a 43.53,43.53 0 0 0 -4.19485,-8.22717 l 10.17162,-11.62192 -18.89932,-15.64053 -9.3599,11.61014 a 43.53,43.53 0 0 0 -9.86509,-3.20218 l 0.28863,-15.8997 -25.42253,2.61237 1.42621,15.1847 a 43.53,43.53 0 0 0 -8.36607,4.20705 z m 22.47505,28.46171 a 23.097,23.097 0 0 1 32.19374,5.51485 23.097,23.097 0 0 1 -5.51406,32.19435 23.097,23.097 0 0 1 -32.19434,-5.51406 23.097,23.097 0 0 1 -1.2374,-1.95017 23.097,23.097 0 0 1 6.75127,-30.24558 z"/><path id="path1245" fill="#ced2f2" d="m 518.86318,37.989114 -14.05542,-0.47456 -0.0245,8.731137 a 24.66,24.66 0 0 0 -5.12513,1.6888 l -4.93192,-6.974987 -11.41074,9.917265 5.61073,6.440688 a 24.66,24.66 0 0 0 -2.22045,4.518687 l -8.64016,-0.512319 -0.85089,14.3589 8.5683,0.0572 a 24.66,24.66 0 0 0 1.84086,5.28806 l -6.7872,5.073 9.77418,10.5228 5.7407,-5.60474 a 24.66,24.66 0 0 0 5.44501,2.65181 l -1.04197,7.825485 14.58266,1.48311 0.22295,-8.653155 a 24.66,24.66 0 0 0 5.16184,-1.86224 l 5.07307,6.76697 10.47437,-10.07196 -5.4858,-5.82362 a 24.66,24.66 0 0 0 2.2687,-4.71464 l 8.72953,0.59583 0.56193,-13.886232 -8.44515,-0.233548 a 24.66,24.66 0 0 0 -1.94287,-5.546503 l 7.26498,-5.325513 -9.9036,-10.562879 -6.35366,5.854735 a 24.66,24.66 0 0 0 -4.76849,-2.32653 z m -5.11469,19.898709 a 13.085,13.085 0 0 1 8.565,16.403482 13.085,13.085 0 0 1 -16.40332,8.56401 13.085,13.085 0 0 1 -8.56501,-16.40348 13.085,13.085 0 0 1 0.4541,-1.226342 13.085,13.085 0 0 1 15.94923,-7.33767 z"/><g id="g1327" fill="none" stroke-linecap="round" transform="translate(0,34.745999)"><path id="path1247" stroke="#fafafa" stroke-width="6.09" d="M 688.416,280.722 V 737.784"/><path id="path1249" stroke="#000" stroke-width="7.658" d="m 715.464,294.75 h 45.355"/><path id="path1251" stroke="#f9aa33" stroke-width="7.658" d="m 715.464,294.75 h 45.355"/><path id="path1253" stroke="#8dc374" stroke-width="7.658" d="m 781.652,294.75 h 67.649"/><path id="path1255" stroke="#d22f97" stroke-width="7.658" d="m 716.477,318.585 h 85.294"/><path id="path1257" stroke="#97d457" stroke-width="7.658" d="M 824.74,318.585 H 984.435"/><path id="path1259" stroke="#d22f97" stroke-width="7.658" d="m 715.278,342.42 h 58.961"/><path id="path1261" stroke="#f9f9f6" stroke-width="7.658" d="m 745.203,366.256 h 35.64"/><path id="path1263" stroke="#91c66b" stroke-width="7.658" d="m 805.869,366.256 h 265.809"/><path id="path1265" stroke="#d22f97" stroke-width="7.658" d="m 746.264,390.092 h 58.961"/><path id="path1267" stroke="#f0474a" stroke-width="7.658" d="m 834.23,390.092 h 241.496 m -287.743,23.835 h 85.294"/><path id="path1269" stroke="#e6a243" stroke-width="7.658" d="m 896.246,413.927 h 159.695"/><path id="path1271" stroke="#8dc374" stroke-width="7.658" d="m 786.785,437.762 h 58.96"/><path id="path1273" stroke="#d22f97" stroke-width="7.658" d="m 870.904,437.762 h 92.721"/><path id="path1275" stroke="#f9f9f6" stroke-width="7.658" d="m 787.983,461.598 h 85.294"/><path id="path1277" stroke="#f9aa33" stroke-width="7.658" d="m 896.246,461.598 h 159.695"/><path id="path1279" stroke="#d22f97" stroke-width="7.658" d="M 745.176,485.433 H 787.61"/><path id="path1281" stroke="#f9aa33" stroke-width="7.658" d="m 1097.966,366.256 h 35.64"/><path id="path1283" stroke="#f0474a" stroke-width="7.658" d="M 813.603,485.433 H 984.435"/><path id="path1285" stroke="#d22f97" stroke-width="7.658" d="m 715.278,509.268 h 58.961"/><path id="path1287" stroke="#f9f9f6" stroke-width="7.658" d="m 745.203,533.104 h 35.64"/><path id="path1289" stroke="#8dc374" stroke-width="7.658" d="M 804.781,533.104 H 996.15"/><path id="path1291" stroke="#f9aa33" stroke-width="7.658" d="m 746.264,556.94 h 58.961"/><path id="path1293" stroke="#91c66b" stroke-width="7.658" d="M 831.88,556.94 H 945.672"/><path id="path1295" stroke="#d22f97" stroke-width="7.658" d="m 787.983,580.775 h 85.294"/><path id="path1297" stroke="#ed595e" stroke-opacity=".984" stroke-width="7.658" d="m 896.246,580.775 h 159.695"/><path id="path1299" stroke="#f9f9f6" stroke-width="7.658" d="m 786.785,604.61 h 58.96"/><path id="path1301" stroke="#f9aa33" stroke-width="7.658" d="m 870.904,604.61 h 92.721"/><path id="path1303" stroke="#d22f97" stroke-width="7.658" d="m 787.983,628.445 h 85.294"/><path id="path1305" stroke="#ee5a5f" stroke-opacity=".996" stroke-width="7.658" d="m 896.246,628.445 h 159.695"/><path id="path1307" stroke="#f6b04a" stroke-opacity=".982" stroke-width="7.658" d="M 745.176,652.28 H 787.61"/><path id="path1309" stroke="#91c66b" stroke-width="7.658" d="M 813.699,652.28 H 906.42"/><path id="path1311" stroke="#d22f97" stroke-width="7.658" d="m 971.54,556.94 h 56.609"/><path id="path1313" stroke="#000" stroke-width="7.658" d="m 715.464,676.116 h 45.355"/><path id="path1315" stroke="#d22f97" stroke-width="7.658" d="m 715.464,676.116 h 45.355"/><path id="path1317" stroke="#91c66b" stroke-width="7.658" d="m 781.652,676.116 h 67.649"/><path id="path1319" stroke="#d22f97" stroke-width="7.658" d="m 716.477,699.951 h 85.294"/><path id="path1321" stroke="#97d457" stroke-width="7.658" d="m 822.527,699.951 h 68.67"/><path id="path1323" stroke="#e6a243" stroke-width="7.658" d="m 715.278,723.787 h 58.961"/><path id="path1325" stroke="#fafafa" stroke-width="6.317" d="m 656.403,294.75 h 11.458 m -11.458,23.835 h 11.458 m -11.458,23.835 h 11.458 m -11.458,23.836 h 11.458 m -11.458,23.836 h 11.458 m -11.458,23.835 h 11.458 m -11.458,23.835 h 11.458 m -11.458,23.836 h 11.458 m -11.458,23.835 h 11.458 m -11.458,23.835 h 11.458 m -11.458,23.836 h 11.458 m -11.458,23.836 h 11.458 m -11.458,23.835 h 11.458 m -11.458,23.835 h 11.458 m -11.458,23.835 h 11.458 m -11.458,23.835 h 11.458 m -11.458,23.836 h 11.458 m -11.458,23.835 h 11.458 m -11.458,23.836 h 11.458"/></g><g id="g1389" transform="translate(-369.892,752.914)"><path id="path1329" fill="url(#b)" d="m 922.879,-135.871 c 0,0 -3.502,16.235 -8.914,24.194 -5.412,7.959 -15.28,9.55 -15.28,9.55 l 41.703,84.364 66.536,-82.135 c 0,0 -15.281,-4.138 -22.922,-14.007 -7.64,-9.87 -7.958,-21.648 -7.958,-21.648 z"/><path id="path1331" fill="#2f368d" d="m 904.098,-106.583 c 0,0 -66.512,30.488 -76.088,41.066 -37.003,40.877 -47.795,114.208 -49.629,164.129 44.418,182.914 323.364,122.903 342.284,-4.932 0.642,-66.355 -21.244,-139.869 -50.846,-162.18 -0.372,-0.285 -0.75,-0.564 -1.133,-0.835 -11.143,-10.824 -73.225,-36.93 -73.225,-36.93 0,0 -2.864,50.62 -46.478,50.62 -43.614,0 -44.885,-50.938 -44.885,-50.938 z"/><path id="path1333" fill="#1c214d" d="m 919.237,-314.789 c -8.947,-6.657 -57.554,-20.562 -50.65,-32.19 8.196,-13.803 58.405,27.172 58.342,27.277 z m 11.76,-5.248 c -3.17,-14.198 -41.214,-35.65 -29.607,-46.161 13.01,-11.78 40.22,41.696 37.725,43.614 z m 29.288,-2.229 c 0,0 24.248,-56.233 38.68,-43.295 11.822,10.598 -28.89,31.152 -29.448,46.001 z m 12.098,3.82 c -0.213,-0.426 51.349,-42.348 59.213,-28.492 7.114,12.534 -54.622,30.2 -53.006,32.472 z"/><path id="path1335" fill="#facbac" d="m 950.395,-117.366 c 14.751,0.256 33.064,-8.17 52.524,-52.464 27.647,-62.928 13.577,-135.497 -52.447,-135.675 -68.16,1.171 -79.686,86.743 -54.18,136.91 21.668,42.622 39.35,50.973 54.103,51.23 z"/><path id="path1337" fill="#1c214d" d="m 943.988,-322.062 c 4.477,-0.424 -13.425,-50.789 5.093,-51.096 19.757,-0.327 0.763,50.916 6.686,51.573 z"/><path id="path1339" fill="#f9af3b" d="m 908.92,-305.746 c 0,0 8.104,-19.134 40.07,-18.909 31.965,0.225 42.545,18.91 42.545,18.91 z"/><path id="path1341" fill="#272f6c" d="m 885.284,-196.343 c 0,0 1.39,-61.828 27.277,-70.832 25.887,-9.004 35.419,5.55 35.419,5.55 0,0 11.776,-14.22 35.637,-5.891 23.862,8.329 27.727,71.398 27.727,71.398 0,0 0.425,5.24 4.893,-0.325 10.61,-13.216 13.117,-44.906 9.653,-54.165 2.442,-14.972 -6.198,-33.723 -16.189,-39.75 -5.972,-11.945 -14.601,-19.6 -27.46,-18.818 -14.106,-8.67 -32.842,-3.858 -33.702,-3.098 -1.046,-1.289 -14.81,-5.598 -29.496,2.203 -14.883,3.188 -23.181,11.05 -28.78,20.256 -12.07,9.238 -19.594,25.123 -16.305,39.406 -3.294,10.661 -3.856,39.228 7.253,53.157 2.393,3 3.027,-1.517 4.073,0.909 z"/><path id="path1343" fill="#facbac" d="m 883.011,-200.904 c 4.386,-0.158 9.596,4.24 10.39,7.57 l 3.09,23.51 c -3.548,8.475 -9.86,7.546 -16.334,-8.93 -1.488,-3.788 -3.83,-7.755 -3.31,-13.624 0.548,-6.177 3.163,-8.418 6.164,-8.526 z m 133.242,0 c -4.385,-0.158 -9.596,4.24 -10.39,7.57 l -3.09,23.51 c 3.548,8.475 9.86,7.546 16.334,-8.93 1.488,-3.788 3.83,-7.755 3.31,-13.624 -0.548,-6.177 -3.163,-8.418 -6.164,-8.526 z"/><path id="path1345" fill="#1a2049" d="m 976.987,-311.741 c -0.285,1.132 -1.564,6.303 -1.42,8.735 0.159,2.706 1.91,7.004 1.114,9.551 -0.796,2.547 -8.595,13.37 -8.595,13.37 0,0 11.459,-8.912 12.891,-11.3 1.433,-2.387 -0.159,-6.208 0,-9.073 0.137,-2.462 4.513,-7.265 5.801,-8.631 a 27.688,27.688 0 0 0 -4.536,-0.088 31.292,31.292 0 0 0 -5.255,-2.564 z m 30.495,17.367 c -1.125,1.212 -3.307,3.765 -3.425,5.534 -0.159,2.388 0.318,4.618 -0.319,6.21 -0.636,1.592 -4.773,7.959 -4.773,7.959 0,0 6.685,-3.823 8.117,-5.733 1.433,-1.91 0.638,-2.863 1.434,-4.455 0.574,-1.148 2.888,-2.561 4.15,-3.273 -0.97,-0.85 -1.957,-1.618 -2.964,-2.226 a 55.403,55.403 0 0 0 -2.22,-4.016 z m 18.813,37.804 c -0.676,1.922 -2.188,5.94 -3.613,7.842 -1.91,2.547 -8.118,9.55 -8.118,9.55 0,0 6.367,-3.977 7.8,-4.932 1.235,-0.824 3.455,-3.53 4.13,-4.358 -0.177,-0.8 -0.375,-1.525 -0.605,-2.139 0.316,-1.935 0.44,-3.937 0.406,-5.963 z m -72.583,-57.004 c -2.9,0.486 -4.914,1.07 -5.174,1.3 -0.186,-0.23 -0.894,-0.558 -1.82,-0.894 0.09,1.467 0.354,5.987 0.354,8.57 0,3.024 3.822,15.758 3.822,15.758 0,0 1.911,-12.575 2.389,-15.599 0.44,-2.783 0.431,-8.212 0.429,-9.135 z m -31.912,2.181 c -0.922,0.396 -1.841,0.836 -2.757,1.322 a 53.573,53.573 0 0 0 -5.092,1.352 c 0.427,0.504 5.427,6.45 5.427,8.739 0,2.387 -0.955,6.367 0.318,9.232 1.274,2.865 12.096,9.23 12.096,9.23 0,0 -7.163,-7.48 -7.8,-10.981 -0.636,-3.502 0.797,-8.756 0.797,-10.984 0,-1.969 -2.403,-6.764 -2.99,-7.91 z m -28.592,17.246 a 51.723,51.723 0 0 0 -2.945,4.332 43.956,43.956 0 0 0 -2.924,2.473 c 1.01,0.354 4.248,1.523 4.66,2.483 0.477,1.114 -0.636,2.386 2.07,5.092 2.706,2.706 8.596,5.733 8.596,5.733 0,0 -3.823,-3.027 -5.096,-6.847 -1.274,-3.82 -0.417,-7.898 -1.69,-9.967 -0.98,-1.593 -2.098,-2.736 -2.671,-3.299 z m -19.996,36.852 c 0.003,2.314 0.225,4.62 0.747,6.887 -0.321,1.04 -0.606,2.292 -0.867,3.643 3.772,3.766 8.688,5.548 12.485,7.201 -2.668,-1.791 -10.637,-13.778 -12.365,-17.73 z m 12.365,17.731 c 0.213,0.143 0.394,0.224 0.533,0.228 -0.165,-0.074 -0.363,-0.154 -0.533,-0.228 z"/><circle id="circle1347" cx="919.536" cy="-210.062" r="22.427" fill="#d1d3f0" fill-opacity=".682" stroke="#1a2049" stroke-linecap="round" stroke-width="3.169"/><circle id="circle1349" cx="976.108" cy="-210.062" r="22.427" fill="#d8daf2" fill-opacity=".697" stroke="#1a2049" stroke-linecap="round" stroke-width="3.169"/><path id="path1351" fill="none" stroke="#1a2049" stroke-width="3.553" d="m 942.935,-211.017 11.46,0.159"/><path id="path1353" fill="#bb965c" d="m 631.531,189.502 h 602.718 v 42.05 H 631.531 Z"/><path id="path1355" fill="#fbca7d" d="m 537.308,159.132 h 839.444 v 42.05 H 537.308 Z"/><path id="path1357" fill="#969cdd" d="m 836.287,171.517 c -7.57,-1.8 -5.642,-14.203 -0.264,-18.046 5.378,-3.843 209.246,-5.99 216.231,-1.406 6.986,4.584 4.19,16.742 -4.466,18.98 -8.656,2.238 -203.931,2.272 -211.501,0.472 z"/><path id="path1359" fill="#b0b4e5" d="m 842.59,144.985 c -7.015,-11.833 -17.945,-154.378 -7.266,-165.336 9.045,-9.282 220.631,-9.012 229.895,0 7.845,7.632 -11.81,156.915 -17.304,165.623 -6.357,10.075 -4.183,11.57 -106.053,12.138 -101.87,0.568 -92.904,-1.682 -99.272,-12.425 z"/><path id="path1361" fill="none" stroke="#e3dc5d" stroke-width="4.147" d="m 1229.948,107.092 c 14.076,-18.29 22.337,-25.416 22.81,-43.707 m -37.167,45.462 c 3.382,-21.486 0.017,-47.912 5.424,-66.198 m -17.547,72.1 c 0.191,-24.995 -27.898,-37.384 -22.49,-55.67"/><path id="path1363" fill="#575fc7" d="m 1180.18,102.538 h 75.956 l -11.862,65.698 h -50.186 z"/><circle id="circle1365" cx="1255.789" cy="52.858" r="15.473" fill="#f6a169"/><circle id="circle1367" cx="1222.61" cy="34.035" r="18.185" fill="#f6a169"/><circle id="circle1369" cx="1180.02" cy="50.305" r="13.559" fill="#f6a169"/><path id="path1371" fill="#e3dc5d" d="m 1216.818,92.164 c 0,0 -3.213,-26.476 -18.397,-29.105 -3.31,18.884 18.397,29.105 18.397,29.105 z m -0.778,-6.892 c 0,0 9.147,-25.052 24.531,-24.16 -1.07,19.142 -24.532,24.16 -24.532,24.16 z m -21.411,6.224 c 1.246,1.557 -13.665,-9.713 -33.094,-9.503 10.85,15.73 33.297,9.35 33.094,9.503 z m 70.401,-12.74 c 1.993,-0.048 -16.006,4.99 -27.607,20.576 19.089,0.896 27.609,-20.83 27.607,-20.576 z"/><path id="path1373" fill="#444dc1" d="m 632.466,144.056 -45.816,-126.34 7.868,-4.164 60.624,131.892 z"/><path id="path1375" fill="#3b43b1" d="m 629.58,142.764 24.466,-0.259 c 13.54,1.88 23.189,12.826 29.573,25.428 -30.124,5.688 -47.603,7.625 -81.132,0.275 6.651,-12.243 13.164,-18.429 29.502,-25.513 z"/><path id="path1377" fill="#444dc1" d="m 583.411,4.759 81.345,-94.413 6.18,9.6 -84.737,88.439 z"/><circle id="circle1379" cx="737.24" cy="-54.038" r="21.998" fill="#fcd599"/><path id="path1381" fill="#444dc1" d="m 710.095,2.398 c -0.565,-2.719 -45.34,-92.052 -45.34,-92.052 l 101.341,-13.137 z"/><circle id="circle1383" cx="589.621" cy="7.424" r="11.422" fill="#2b317f"/><path id="path1385" fill="#2b317f" d="m 664.756,-89.654 8.436,16.635 9.733,-19.078 z"/><circle id="circle1387" cx="1008.372" cy="-169.112" r="2.991" fill="#0d3662"/></g></svg>